<svg xmlns="http://www.w3.org/2000/svg" viewBox="0 0 628.86 452.99">
    <clippath id="logo-clip-path">
        <defs>
            <style>
                .cls-1 {
                    fill: #fff;
                }
            </style>
        </defs>
        <g id="Layer_2" data-name="Layer 2">
            <g id="Layer_1-2" data-name="Layer 1">
                <path class="cls-1"
                    d="M608.36,225.43,311.57,443.26a50.2,50.2,0,0,1-75.37-61.32l44-96.46L208.92,357.4a50.2,50.2,0,0,1-83.35-51l46.81-142.48L106.53,190l-4.22,1.67A32.85,32.85,0,0,1,59.5,149.51l8.79-23.35-53,17.39A11.65,11.65,0,0,1,4.87,123L104.59,52a28.18,28.18,0,0,1,43.5,30.47l-.89,3.17,83.55-52.32a48.46,48.46,0,0,1,71.82,56l-1.48,4.49-13.77,41.92L407.1,14.86a50.2,50.2,0,0,1,81.32,56.19L407.56,248.26,549,144.48a50.2,50.2,0,0,1,59.4,81Z" />
            </g>
        </g>
    </clippath>
</svg>